Coordinates
version=1
nRows=8
nColumns=34
inDegrees=yes

Units are S.I. units (second, meters, Newtons, ...)
If the header above contains a line with 'inDegrees', this indicates whether rotational values are in degrees (yes) or radians (no).

endheader
time	pelvis_tilt	pelvis_list	pelvis_rotation	pelvis_tx	pelvis_ty	pelvis_tz	hip_flexion_r	hip_adduction_r	hip_rotation_r	knee_angle_r	ankle_angle_r	subtalar_angle_r	mtp_angle_r	hip_flexion_l	hip_adduction_l	hip_rotation_l	knee_angle_l	ankle_angle_l	subtalar_angle_l	mtp_angle_l	lumbar_extension	lumbar_bending	lumbar_rotation	arm_flex_r	arm_add_r	arm_rot_r	elbow_flex_r	pro_sup_r	arm_flex_l	arm_add_l	arm_rot_l	elbow_flex_l	pro_sup_l
      3.25000000	      2.65841771	     -1.30239145	      3.77567011	     -0.66381524	      1.14981023	     -0.03960359	     -7.49560082	     -3.28781127	    -12.07267624	      5.02239877	     12.19031688	    -10.12874183	      0.00000000	     -5.51254969	     -5.19308232	    -10.63161828	      4.79120246	      9.00127378	     -4.16787877	      0.00000000	     -2.45902465	      0.10387844	     -2.87561488	     -7.08205739	     -4.59092753	     -3.58805207	     30.35659113	     86.45105486	     -8.47356031	     -7.41213613	     -1.85959965	     34.03110883	     87.54153965
      3.26666670	      2.61852920	     -1.23731743	      3.86428108	     -0.65704689	      1.15032835	     -0.03780564	     -7.78759336	     -3.25028983	    -12.12764056	      4.70452800	     12.05642015	    -10.05762024	      0.00000000	     -5.57122723	     -5.18729367	    -10.78659522	      4.76831230	      8.83545231	     -4.15893556	      0.00000000	     -1.94868939	     -0.14743435	     -3.25928513	     -7.52810906	     -4.40809191	     -3.53777943	     30.62954427	     86.52879674	     -8.89586679	     -7.50950652	     -2.09046063	     33.46831431	     87.76870926
      3.28333330	      2.64801944	     -1.26686898	      3.90530992	     -0.65265739	      1.15051599	     -0.03671340	     -8.10310339	     -3.13169904	    -12.18200728	      4.55881895	     12.02677760	     -9.96141085	      0.00000000	     -5.76382764	     -5.29444337	    -10.99410645	      4.73128462	      8.68858158	     -4.05531434	      0.00000000	     -1.51050475	     -0.19443759	     -3.42111036	     -8.04215309	     -4.30085614	     -3.52037988	     30.77804102	     86.61012109	     -9.29599100	     -7.51075374	     -2.32746193	     33.09810632	     88.00333817
      3.30000000	      2.69264228	     -1.30746732	      3.98844033	     -0.65223908	      1.15032593	     -0.03658210	     -8.30349204	     -3.02116681	    -12.23395757	      4.63946286	     12.04629632	     -9.98266727	      0.00000000	     -5.91872487	     -5.41813538	    -11.17002429	      4.76298313	      8.65763678	     -4.09929524	      0.00000000	     -1.35292320	     -0.31454813	     -3.43623552	     -8.31740586	     -4.21300320	     -3.50593287	     30.74684837	     86.62300959	     -9.53740448	     -7.53685031	     -2.36253654	     32.99023511	     88.03565427
      3.31666670	      2.67820512	     -1.32259692	      3.97240015	     -0.65199525	      1.15005234	     -0.03665871	     -8.71820824	     -2.89934925	    -12.22749261	      4.14319412	     12.02895466	     -9.86911000	      0.00000000	     -6.33346957	     -5.44278320	    -11.34122807	      4.32291308	      8.45972493	     -3.83796107	      0.00000000	     -0.70818631	     -0.38867179	     -3.53150216	     -8.83671788	     -4.10471119	     -3.50873949	     30.81977252	     86.67482904	     -9.97545983	     -7.59829114	     -2.52866292	     32.73085337	     88.18273588
      3.33333330	      2.65559138	     -1.37004015	      4.02524077	     -0.65192831	      1.14974661	     -0.03669556	     -8.88778631	     -2.78254946	    -12.27941496	      4.00732214	     12.05779165	     -9.87039101	      0.00000000	     -6.56558119	     -5.52361476	    -11.44124796	      4.11972134	      8.44321956	     -3.68719409	      0.00000000	     -0.42197051	     -0.42950661	     -3.55842502	     -9.13826261	     -3.97683245	     -3.49519681	     30.85583849	     86.71224786	    -10.16126483	     -7.67719298	     -2.64663298	     32.59814750	     88.28243932
      3.35000000	      2.58490328	     -1.41288004	      4.10804294	     -0.65134002	      1.14952102	     -0.03674466	     -9.03730412	     -2.65914154	    -12.23516873	      3.72369396	     12.06499555	     -9.83827204	      0.00000000	     -6.72710473	     -5.58665080	    -11.39554119	      3.87576286	      8.43015938	     -3.44731437	      0.00000000	     -0.16387352	     -0.50541293	     -3.55925055	     -9.39133923	     -3.94311653	     -3.49747944	     30.89163426	     86.75043505	    -10.26433039	     -7.69971637	     -2.75213115	     32.50968679	     88.39041940
      3.36666670	      2.52899658	     -1.44379558	      4.18029867	     -0.65259452	      1.14917995	     -0.03715086	     -9.03664973	     -2.59618716	    -12.24165199	      3.64876777	     12.05555412	     -9.84064694	      0.00000000	     -6.75596675	     -5.62485194	    -11.40519611	      3.73982523	      8.44940143	     -3.40630835	      0.00000000	     -0.14272540	     -0.58668057	     -3.54836726	     -9.42878154	     -3.95386296	     -3.50154886	     30.90206668	     86.75895524	    -10.27510521	     -7.68643891	     -2.76927145	     32.49349031	     88.41595839
